<svg width="20" height="24" viewBox="0 0 20 24" fill="none" xmlns="http://www.w3.org/2000/svg">
<path opacity="0.3" d="M9.99998 5.58334C7.09498 5.58334 5.33331 7.94001 5.33331 10.8333V17.8333H14.6666V10.8333C14.6666 7.94001 12.905 5.58334 9.99998 5.58334Z" fill="#CCCCCC"/>
<path d="M17 16.6667V10.8333C17 7.25166 15.0984 4.25332 11.75 3.45999V2.66666C11.75 1.69832 10.9684 0.916656 10 0.916656C9.03169 0.916656 8.25002 1.69832 8.25002 2.66666V3.45999C4.91335 4.25332 3.00002 7.23999 3.00002 10.8333V16.6667L0.666687 19V20.1667H19.3334V19L17 16.6667ZM14.6667 17.8333H5.33335V10.8333C5.33335 7.93999 7.09502 5.58332 10 5.58332C12.905 5.58332 14.6667 7.93999 14.6667 10.8333V17.8333ZM10 23.6667C11.2834 23.6667 12.3334 22.6167 12.3334 21.3333H7.66669C7.66669 22.6167 8.71669 23.6667 10 23.6667Z" fill="#CCCCCC"/>
<path d="M18.8333 7.33334C18.8333 8.9902 17.4902 10.3333 15.8333 10.3333C14.1765 10.3333 12.8333 8.9902 12.8333 7.33334C12.8333 5.67649 14.1765 4.33334 15.8333 4.33334C17.4902 4.33334 18.8333 5.67649 18.8333 7.33334Z" fill="#FF6969" stroke="white"/>
</svg>
