<svg width="23" height="22" viewBox="0 0 23 22" fill="none" xmlns="http://www.w3.org/2000/svg">
<path opacity="0.3" d="M12.1666 16.8333C10.8833 16.8333 9.83331 15.7833 9.83331 14.5V7.49998C9.83331 6.21665 10.8833 5.16665 12.1666 5.16665H19.1666V2.83331H2.83331V19.1666H19.1666V16.8333H12.1666Z" fill="#CCCCCC"/>
<path d="M21.5 5.49333V2.83333C21.5 1.55 20.45 0.5 19.1667 0.5H2.83333C1.53833 0.5 0.5 1.55 0.5 2.83333V19.1667C0.5 20.45 1.53833 21.5 2.83333 21.5H19.1667C20.45 21.5 21.5 20.45 21.5 19.1667V16.5067C22.1883 16.0983 22.6667 15.3633 22.6667 14.5V7.5C22.6667 6.63667 22.1883 5.89 21.5 5.49333ZM20.3333 7.5V14.5H12.1667V7.5H20.3333ZM2.83333 19.1667V2.83333H19.1667V5.16667H12.1667C10.8833 5.16667 9.83333 6.21667 9.83333 7.5V14.5C9.83333 15.7833 10.8833 16.8333 12.1667 16.8333H19.1667V19.1667H2.83333Z" fill="#CCCCCC"/>
<path d="M15.6667 12.75C16.6332 12.75 17.4167 11.9665 17.4167 11C17.4167 10.0335 16.6332 9.25 15.6667 9.25C14.7002 9.25 13.9167 10.0335 13.9167 11C13.9167 11.9665 14.7002 12.75 15.6667 12.75Z" fill="#CCCCCC"/>
</svg>
