<svg width="14" height="16" viewBox="0 0 14 16" fill="none" xmlns="http://www.w3.org/2000/svg">
<path opacity="0.3" d="M12.25 3.75H1.75003V5.25H12.25V3.75Z" fill="#CCCCCC"/>
<path d="M1.75 15.75H12.25C13.075 15.75 13.75 15.075 13.75 14.25V3.75C13.75 2.925 13.075 2.25 12.25 2.25H11.5V0.75H10V2.25H4V0.75H2.5V2.25H1.75C0.9175 2.25 0.2575 2.925 0.2575 3.75L0.25 14.25C0.25 15.075 0.9175 15.75 1.75 15.75ZM1.75 5.25V3.75H12.25V5.25H1.75ZM1.75 6.75H12.25V14.25H1.75V6.75ZM7 9H10.75V12.75H7V9Z" fill="#CCCCCC"/>
</svg>
