<svg width="46" height="46" viewBox="0 0 46 46" fill="none" xmlns="http://www.w3.org/2000/svg">
<rect width="46" height="46" rx="10" fill="#008274" fill-opacity="0.12"/>
<path d="M19.55 23C18.48 22.29 17.3 21.73 16.02 21.39C17.3 21.73 18.48 22.29 19.55 23ZM29.98 21.39C28.69 21.73 27.49 22.3 26.41 23.03C27.49 22.3 28.69 21.73 29.98 21.39Z" fill="#008274"/>
<path opacity="0.3" d="M19.94 23.25C19.94 23.24 19.94 23.24 19.94 23.25C19.81 23.16 19.67 23.08 19.54 22.99C19.67 23.09 19.81 23.16 19.94 23.25ZM24.35 19.58C24.13 18.37 23.69 17.23 23.05 16.2C22.39 17.24 21.93 18.39 21.68 19.59C22.14 19.89 22.58 20.21 23.01 20.56C23.43 20.21 23.88 19.88 24.35 19.58ZM27.54 24.66L27.55 24.68C27.46 24.74 27.37 24.8 27.28 24.85L27.21 24.9C26.23 25.61 25.37 26.51 24.68 27.56L23 30.1L21.33 27.55C20.65 26.52 19.81 25.63 18.82 24.9L18.75 24.86C18.62 24.78 18.49 24.7 18.36 24.61L18.37 24.6C17.41 23.97 16.36 23.53 15.25 23.27C16 26.63 18.41 29.44 21.7 30.62C22.12 30.77 22.54 30.89 22.98 30.98C23.43 30.89 23.87 30.77 24.31 30.61C27.58 29.44 29.98 26.63 30.74 23.27C29.6 23.53 28.51 24 27.54 24.66Z" fill="#008274"/>
<path d="M23 26.45C22.18 25.2 21.14 24.11 19.94 23.25C19.81 23.16 19.67 23.09 19.54 22.99C19.67 23.08 19.81 23.16 19.93 23.24C17.98 21.83 15.59 21 13 21C13 26.32 16.36 30.82 21.03 32.49C21.66 32.72 22.32 32.89 23 33C23.68 32.88 24.33 32.71 24.97 32.49C29.64 30.82 33 26.32 33 21C28.82 21 25.15 23.17 23 26.45ZM24.32 30.6C23.88 30.75 23.44 30.87 22.99 30.97C22.55 30.88 22.12 30.76 21.71 30.61C18.42 29.43 16.01 26.62 15.26 23.26C16.36 23.52 17.41 23.97 18.38 24.59L18.36 24.6C18.49 24.69 18.62 24.78 18.75 24.85L18.82 24.89C19.81 25.61 20.66 26.5 21.33 27.54L23 30.1L24.67 27.55C25.36 26.5 26.22 25.6 27.2 24.89L27.27 24.84C27.36 24.79 27.45 24.73 27.54 24.67L27.53 24.65C28.51 24 29.6 23.52 30.74 23.25C29.99 26.62 27.59 29.43 24.32 30.6ZM26.49 20.63C26.31 17.84 25.18 15.12 23.06 13C20.92 15.14 19.74 17.86 19.51 20.63C20.79 21.31 21.97 22.19 23 23.26C24.03 22.2 25.21 21.32 26.49 20.63ZM23.05 16.19C23.68 17.22 24.12 18.37 24.35 19.57C23.88 19.87 23.44 20.2 23.01 20.55C22.59 20.21 22.14 19.88 21.68 19.58C21.93 18.38 22.39 17.23 23.05 16.19Z" fill="#008274"/>
<path opacity="0.3" d="M19.99 23.28C19.97 23.27 19.95 23.25 19.94 23.24C19.94 23.24 19.95 23.24 19.95 23.25C19.96 23.26 19.97 23.27 19.99 23.28Z" fill="#008274"/>
</svg>
