<svg width="22" height="26" viewBox="0 0 22 26" fill="none" xmlns="http://www.w3.org/2000/svg">
<path d="M11 0.166687C5.20167 0.166687 0.5 4.86835 0.5 10.6667V18.8334C0.5 20.77 2.06333 22.3334 4 22.3334H7.5V13H2.83333V10.6667C2.83333 6.15169 6.485 2.50002 11 2.50002C15.515 2.50002 19.1667 6.15169 19.1667 10.6667V13H14.5V22.3334H19.1667V23.5H11V25.8334H18C19.9367 25.8334 21.5 24.27 21.5 22.3334V10.6667C21.5 4.86835 16.7983 0.166687 11 0.166687ZM5.16667 15.3334V20H4C3.35833 20 2.83333 19.475 2.83333 18.8334V15.3334H5.16667ZM19.1667 20H16.8333V15.3334H19.1667V20Z" fill="#CCCCCC"/>
</svg>
