<svg width="46" height="45" viewBox="0 0 46 45" fill="none" xmlns="http://www.w3.org/2000/svg">
<rect width="46" height="45" rx="10" fill="#E03C43" fill-opacity="0.12"/>
<path opacity="0.3" d="M27.11 16.77C26.58 19.37 24.49 21.2 21.83 21.2C20.27 21.2 18.87 20.58 17.86 19.57C17.3 20.96 17 22.47 17 24C17 27.31 19.69 30 23 30C26.31 30 29 27.31 29 24C29 21.44 28.34 18.97 27.11 16.77ZM22.89 27.99C21.52 27.99 20.4 26.91 20.4 25.57C20.4 24.32 21.21 23.44 22.57 23.16C23.94 22.88 25.35 22.23 26.14 21.17C26.44 22.17 26.6 23.22 26.6 24.29C26.6 26.33 24.94 27.99 22.89 27.99Z" fill="#E03C43"/>
<path d="M22.57 23.16C21.21 23.44 20.4 24.32 20.4 25.57C20.4 26.91 21.51 27.99 22.89 27.99C24.94 27.99 26.6 26.33 26.6 24.28C26.6 23.21 26.45 22.16 26.14 21.16C25.35 22.23 23.94 22.88 22.57 23.16ZM24.5 10.67C24.5 10.67 25.24 13.32 25.24 15.47C25.24 17.53 23.89 19.2 21.83 19.2C19.76 19.2 18.2 17.53 18.2 15.47L18.23 15.11C16.21 17.51 15 20.62 15 24C15 28.42 18.58 32 23 32C27.42 32 31 28.42 31 24C31 18.61 28.41 13.8 24.5 10.67ZM23 30C19.69 30 17 27.31 17 24C17 22.47 17.3 20.96 17.86 19.57C18.87 20.58 20.27 21.2 21.83 21.2C24.49 21.2 26.58 19.37 27.11 16.77C28.34 18.97 29 21.44 29 24C29 27.31 26.31 30 23 30Z" fill="#E03C43"/>
</svg>
