<svg width="20" height="20" viewBox="0 0 20 20" fill="none" xmlns="http://www.w3.org/2000/svg">
<path d="M12.82 8.99999H19.95C19.48 4.27999 15.72 0.519988 11 0.0499878V7.17999C11.85 7.48999 12.51 8.14999 12.82 8.99999ZM13 2.57999C15 3.39999 16.6 4.99999 17.42 6.99999H13.99C13.71 6.62999 13.37 6.28999 13 6.00999V2.57999ZM0 9.99999C0 15.19 3.95 19.45 9 19.95V12.82C7.84 12.4 7 11.3 7 9.99999C7 8.69999 7.84 7.59999 9 7.17999V0.0499878C3.95 0.549988 0 4.80999 0 9.99999ZM7 2.57999V6.01999C5.77 6.93999 5 8.40999 5 9.99999C5 11.59 5.77 13.06 7 13.99V17.43C4.04 16.24 2 13.35 2 9.99999C2 6.64999 4.04 3.75999 7 2.57999ZM11 12.82V19.95C15.72 19.48 19.48 15.72 19.95 11H12.82C12.51 11.85 11.85 12.51 11 12.82ZM13 13.99C13.37 13.71 13.71 13.38 13.99 13H17.42C16.6 15 15 16.6 13 17.42V13.99Z" fill="#EC5600"/>
</svg>
